<svg width="220" height="50" viewBox="0 0 220 50" fill="none" xmlns="http://www.w3.org/2000/svg">
<circle cx="25" cy="25" r="25" fill="white"/>
<path d="M40.5727 22.3919C40.0479 21.8567 39.2153 21.5137 34.8494 23.1739C33.2623 23.7773 31.188 24.6778 29.5068 25.6109C29.2736 25.0077 29.0691 24.5115 28.939 24.2022C26.5465 18.5225 25.5784 18.5225 25.0001 18.5225C24.4214 18.5225 23.4533 18.5225 21.0611 24.2022C20.9308 24.5115 20.7262 25.0077 20.4933 25.6109C18.8118 24.6778 16.7378 23.7773 15.1507 23.1739C10.7848 21.5137 9.95254 21.8567 9.42741 22.3919C9.01828 22.8091 8.33388 23.507 10.5805 29.2485C11.0665 30.4899 12.7664 34.658 14.2437 36.1643C15.4295 37.3736 17.0114 37.9868 18.5961 37.9868C19.706 37.9868 20.8171 37.6847 21.7949 37.0771C22.7286 37.6617 23.8262 37.9997 25.0001 37.9997C26.1737 37.9997 27.2716 37.6617 28.2052 37.0771C29.1833 37.685 30.2941 37.9874 31.4043 37.9874C32.9888 37.9874 34.5703 37.3742 35.7565 36.1646C37.2337 34.6583 38.9339 30.4902 39.4196 29.2488C41.6662 23.507 40.9815 22.8088 40.5727 22.3919ZM15.8933 34.4815C14.485 33.0455 12.0207 26.9336 11.4464 24.4561C13.2767 24.9052 17.2121 26.4479 19.6841 27.8732C19.2323 29.2655 18.8556 30.7271 18.8556 31.7334C18.8556 33.0771 19.2741 34.3224 19.9828 35.3436C18.6087 35.8887 16.9824 35.5922 15.8933 34.4815ZM21.1888 31.7337C21.1888 29.7011 23.6888 23.5931 24.9998 21.4324C26.3107 23.5931 28.8107 29.7008 28.8107 31.7337C28.8107 33.8766 27.1012 35.6199 24.9998 35.6199C22.8983 35.6199 21.1888 33.8766 21.1888 31.7337ZM34.1062 34.4815C33.0165 35.5925 31.3908 35.889 30.0168 35.3439C30.7257 34.3227 31.1442 33.0774 31.1442 31.7334C31.1442 30.7271 30.7675 29.2652 30.3157 27.8732C32.7877 26.4479 36.7235 24.9052 38.5534 24.4561C37.9789 26.9336 35.5145 33.0455 34.1062 34.4815Z" fill="#24544B"/>
<path d="M24.9992 15.7964C26.0273 15.7964 26.8607 14.9466 26.8607 13.8982C26.8607 12.8499 26.0273 12 24.9992 12C23.9711 12 23.1377 12.8499 23.1377 13.8982C23.1377 14.9463 23.9711 15.7964 24.9992 15.7964Z" fill="#24544B"/>
<path d="M33.339 21.2935C34.3671 21.2935 35.2006 20.4436 35.2006 19.3953C35.2006 18.3469 34.3671 17.4971 33.339 17.4971C32.311 17.4971 31.4775 18.3469 31.4775 19.3953C31.4775 20.4436 32.311 21.2935 33.339 21.2935Z" fill="#24544B"/>
<path d="M16.6613 21.2935C17.6894 21.2935 18.5228 20.4436 18.5228 19.3953C18.5228 18.3469 17.6894 17.4971 16.6613 17.4971C15.6332 17.4971 14.7998 18.3469 14.7998 19.3953C14.7998 20.4436 15.6332 21.2935 16.6613 21.2935Z" fill="#24544B"/>
<text x="60" y="33" font-family="Georgia, 'Times New Roman', serif" font-size="22" font-weight="600" fill="white" letter-spacing="0.5">Kaya Clinic</text>
</svg>
