<svg width="220" height="50" viewBox="0 0 220 50" fill="none" xmlns="http://www.w3.org/2000/svg">
<circle cx="25" cy="25" r="25" fill="#24544B"/>
<path d="M40.5727 22.3923C40.0479 21.8571 39.2153 21.5141 34.8494 23.1742C33.2623 23.7776 31.188 24.6782 29.5068 25.6112C29.2736 25.008 29.0691 24.5119 28.939 24.2026C26.5465 18.5228 25.5784 18.5228 25.0001 18.5228C24.4214 18.5228 23.4533 18.5228 21.0611 24.2026C20.9308 24.5119 20.7262 25.008 20.4933 25.6112C18.8118 24.6782 16.7378 23.7776 15.1507 23.1742C10.7848 21.5141 9.95254 21.8571 9.42741 22.3923C9.01828 22.8094 8.33388 23.5073 10.5805 29.2488C11.0665 30.4902 12.7664 34.6583 14.2437 36.1647C15.4295 37.3739 17.0114 37.9872 18.5961 37.9872C19.706 37.9872 20.8171 37.685 21.7949 37.0774C22.7286 37.6621 23.8262 38 25.0001 38C26.1737 38 27.2716 37.6621 28.2052 37.0774C29.1833 37.6853 30.2941 37.9878 31.4043 37.9878C32.9888 37.9878 34.5703 37.3745 35.7565 36.165C37.2337 34.6586 38.9339 30.4905 39.4196 29.2491C41.6662 23.5073 40.9815 22.8091 40.5727 22.3923ZM15.8933 34.4819C14.485 33.0458 12.0207 26.934 11.4464 24.4565C13.2767 24.9055 17.2121 26.4483 19.6841 27.8736C19.2323 29.2658 18.8556 30.7274 18.8556 31.7338C18.8556 33.0774 19.2741 34.3228 19.9828 35.344C18.6087 35.889 16.9824 35.5925 15.8933 34.4819ZM21.1888 31.7341C21.1888 29.7015 23.6888 23.5935 24.9998 21.4327C26.3107 23.5935 28.8107 29.7012 28.8107 31.7341C28.8107 33.877 27.1012 35.6202 24.9998 35.6202C22.8983 35.6202 21.1888 33.877 21.1888 31.7341ZM34.1062 34.4819C33.0165 35.5928 31.3908 35.8893 30.0168 35.3443C30.7257 34.3231 31.1442 33.0777 31.1442 31.7338C31.1442 30.7274 30.7675 29.2655 30.3157 27.8736C32.7877 26.4483 36.7235 24.9055 38.5534 24.4565C37.9789 26.934 35.5145 33.0458 34.1062 34.4819Z" fill="#F7F0F2"/>
<path d="M24.9992 15.7964C26.0273 15.7964 26.8607 14.9466 26.8607 13.8982C26.8607 12.8499 26.0273 12 24.9992 12C23.9711 12 23.1377 12.8499 23.1377 13.8982C23.1377 14.9463 23.9711 15.7964 24.9992 15.7964Z" fill="#F7F0F2"/>
<path d="M33.339 21.2935C34.3671 21.2935 35.2006 20.4437 35.2006 19.3953C35.2006 18.347 34.3671 17.4971 33.339 17.4971C32.311 17.4971 31.4775 18.347 31.4775 19.3953C31.4775 20.4437 32.311 21.2935 33.339 21.2935Z" fill="#F7F0F2"/>
<path d="M16.6613 21.2935C17.6894 21.2935 18.5228 20.4437 18.5228 19.3953C18.5228 18.347 17.6894 17.4971 16.6613 17.4971C15.6332 17.4971 14.7998 18.347 14.7998 19.3953C14.7998 20.4437 15.6332 21.2935 16.6613 21.2935Z" fill="#F7F0F2"/>
<text x="60" y="33" font-family="Georgia, 'Times New Roman', serif" font-size="22" font-weight="600" fill="#24544B" letter-spacing="0.5">Kaya Clinic</text>
</svg>
